# xmcd
#
# Track frame offsets:
#   150
#   13058
#   23064
#   32104
#   44664
#   61804
#   71695
#   85000
#   98882
#   110373
#   127724
#   142422
#   155731
#   167712
#   182534
#   196035
#   205519
#   220667
#   230002
#   239726
#   253447
#   258227
#   270215
#   282712
#   293356
#   302360
#   314599
#   325015
#
# Disc length: 4555 seconds
#
# Revision: 0
# Processed by: cddbd v1.5.2PL0 Copyright (c) Steve Scherf et al.
# Submitted via: uFREEDB ActiveX Control 1.5
#
DISCID=9211c91c
DTITLE=os meninos - os meninos
DYEAR=1900
DGENRE=Blues
TTITLE0=os meninos 1
TTITLE1=os meninos 2
TTITLE2=os meninos 3
TTITLE3=os meninos 4
TTITLE4=os meninos 5
TTITLE5=os meninos 6
TTITLE6=os meninos 7
TTITLE7=os meninos 8
TTITLE8=os meninos 9
TTITLE9=os meninos 10
TTITLE10=os meninos 11
TTITLE11=os meninos 12
TTITLE12=os meninos 13
TTITLE13=os meninos 14
TTITLE14=os meninos15
TTITLE15=os meninos 16
TTITLE16=os meninos17
TTITLE17=os meninos 18
TTITLE18=os meninos 19
TTITLE19=os meninos 20
TTITLE20=os meninos 21
TTITLE21=os meninos 22
TTITLE22=os meninos 23
TTITLE23=os meninos 24
TTITLE24=os meninos 25
TTITLE25=os meninos 26
TTITLE26=os meninos 27
TTITLE27=os meninos 28
EXTD=
EXTT0=
EXTT1=
EXTT2=
EXTT3=
EXTT4=
EXTT5=
EXTT6=
EXTT7=
EXTT8=
EXTT9=
EXTT10=
EXTT11=
EXTT12=
EXTT13=
EXTT14=
EXTT15=
EXTT16=
EXTT17=
EXTT18=
EXTT19=
EXTT20=
EXTT21=
EXTT22=
EXTT23=
EXTT24=
EXTT25=
EXTT26=
EXTT27=
PLAYORDER=
